#N canvas 497 273 169 135 10;
#X obj 17 82 osc~ 440;
#X obj 17 107 dac~;
#X obj 17 12 r freq;
#X obj 17 36 * 660;
#X obj 17 59 + 220;
#X connect 0 0 1 0;
#X connect 0 0 1 1;
#X connect 2 0 3 0;
#X connect 3 0 4 0;
#X connect 4 0 0 0;
