#N canvas 693 23 327 419 10;
#X obj 12 13 notein;
#X obj 28 85 osc~;
#X obj 75 86 osc~;
#X obj 28 60 mtof;
#X obj 28 389 dac~;
#X obj 75 140 *~;
#X obj 90 159 r gain @hv_param 0 1 1;
#X obj 28 180 *~;
#X obj 75 180 *~;
#X obj 90 226 osc~;
#X obj 90 294 *~;
#X obj 105 268 * 0.5;
#X obj 96 41 loadbang;
#X msg 96 63 0.5;
#X obj 90 337 +~;
#X msg 117 294 1 \$1;
#X obj 28 363 *~;
#X obj 75 363 *~;
#X obj 117 316 -;
#X obj 90 202 r w_freq @hv_param 1 10 1;
#X obj 105 246 r w_amt @hv_param 0 1 0;
#X obj 28 140 *~;
#X obj 90 118 hv_adsr 10 10 1 500;
#X text 124 65 phase offset for stereo spread;
#X text 101 179 wobble!;
#X connect 0 0 22 0;
#X connect 0 1 3 0;
#X connect 1 0 21 0;
#X connect 2 0 5 0;
#X connect 3 0 1 0;
#X connect 3 0 2 0;
#X connect 5 0 8 0;
#X connect 6 0 7 1;
#X connect 6 0 8 1;
#X connect 7 0 16 0;
#X connect 8 0 17 0;
#X connect 9 0 10 0;
#X connect 10 0 14 0;
#X connect 11 0 10 1;
#X connect 11 0 15 0;
#X connect 12 0 13 0;
#X connect 13 0 2 1;
#X connect 14 0 17 1;
#X connect 14 0 16 1;
#X connect 15 0 18 0;
#X connect 16 0 4 0;
#X connect 17 0 4 1;
#X connect 18 0 14 1;
#X connect 19 0 9 0;
#X connect 20 0 11 0;
#X connect 21 0 7 0;
#X connect 22 0 5 1;
#X connect 22 0 21 1;
