#N canvas 0 22 646 329 10;
#X obj 148 12 inlet attack;
#X obj 228 12 inlet delay;
#X obj 302 12 inlet sustain;
#X obj 389 12 inlet release;
#X obj 62 12 inlet trigger;
#X obj 62 276 line~;
#X msg 191 129 stop;
#X obj 62 55 select 0;
#X text 485 30 \$1: attack (ms);
#X text 485 46 \$2: delay (ms);
#X obj 62 154 f \$4;
#X text 12 154 release;
#X text 485 80 \$4: release (ms);
#X msg 62 177 0 \$1;
#X obj 107 154 f \$1;
#X text 141 153 attack;
#X obj 191 153 delay \$1;
#X text 485 63 \$3: sustain;
#X obj 191 219 pack f f;
#X obj 236 196 f \$2;
#X obj 191 196 f \$3;
#X obj 236 173 loadbang;
#X obj 62 299 outlet~;
#X msg 107 177 1 \$1;
#X text 484 12 trigger: range in [0 \, 1];
#X obj 107 77 bang;
#X obj 107 99 t a a;
#X obj 62 77 bang;
#X obj 62 99 t a a;
#X connect 0 0 16 1;
#X connect 0 0 14 1;
#X connect 1 0 19 0;
#X connect 2 0 20 1;
#X connect 3 0 10 1;
#X connect 4 0 7 0;
#X connect 5 0 22 0;
#X connect 6 0 16 0;
#X connect 7 0 27 0;
#X connect 7 1 25 0;
#X connect 10 0 13 0;
#X connect 13 0 5 0;
#X connect 14 0 23 0;
#X connect 16 0 20 0;
#X connect 18 0 5 0;
#X connect 19 0 18 1;
#X connect 20 0 18 0;
#X connect 21 0 19 0;
#X connect 23 0 5 0;
#X connect 25 0 26 0;
#X connect 26 0 14 0;
#X connect 26 1 16 0;
#X connect 27 0 28 0;
#X connect 28 0 10 0;
#X connect 28 1 6 0;
