#N canvas 389 206 771 203 10;
#X obj 121 38 r gain0;
#X obj 106 62 *~;
#X obj 14 62 *~;
#X obj 292 62 *~;
#X obj 200 62 *~;
#X obj 477 62 *~;
#X obj 385 62 *~;
#X obj 662 62 *~;
#X obj 570 62 *~;
#X obj 307 38 r gain1;
#X obj 492 38 r gain2;
#X obj 677 38 r gain3;
#X obj 14 16 adc~ 1;
#X obj 106 16 adc~ 2;
#X obj 200 16 adc~ 3;
#X obj 292 16 adc~ 4;
#X obj 385 16 adc~ 5;
#X obj 477 16 adc~ 6;
#X obj 570 16 adc~ 7;
#X obj 662 16 adc~ 8;
#X obj 200 164 dac~ 1;
#X obj 292 164 dac~ 2;
#X connect 0 0 1 1;
#X connect 0 0 2 1;
#X connect 1 0 21 0;
#X connect 2 0 20 0;
#X connect 3 0 21 0;
#X connect 4 0 20 0;
#X connect 5 0 21 0;
#X connect 6 0 20 0;
#X connect 7 0 21 0;
#X connect 8 0 20 0;
#X connect 9 0 3 1;
#X connect 9 0 4 1;
#X connect 10 0 5 1;
#X connect 10 0 6 1;
#X connect 11 0 7 1;
#X connect 11 0 8 1;
#X connect 12 0 2 0;
#X connect 13 0 1 0;
#X connect 14 0 4 0;
#X connect 15 0 3 0;
#X connect 16 0 6 0;
#X connect 17 0 5 0;
#X connect 18 0 8 0;
#X connect 19 0 7 0;
