#N canvas 791 142 383 238 10;
#X obj 121 38 r gain0;
#X obj 106 62 *~;
#X obj 14 62 *~;
#X obj 292 62 *~;
#X obj 200 62 *~;
#X obj 307 38 r gain1;
#X obj 14 16 adc~ 1;
#X obj 106 16 adc~ 2;
#X obj 200 16 adc~ 3;
#X obj 292 16 adc~ 4;
#X obj 200 206 dac~ 1;
#X obj 200 185 max~ -1;
#X obj 200 164 min~ 1;
#X obj 292 185 max~ -1;
#X obj 292 164 min~ 1;
#X obj 292 206 dac~ 2;
#X connect 0 0 1 1;
#X connect 0 0 2 1;
#X connect 1 0 14 0;
#X connect 2 0 12 0;
#X connect 3 0 14 0;
#X connect 4 0 12 0;
#X connect 5 0 3 1;
#X connect 5 0 4 1;
#X connect 6 0 2 0;
#X connect 7 0 1 0;
#X connect 8 0 4 0;
#X connect 9 0 3 0;
#X connect 11 0 10 0;
#X connect 12 0 11 0;
#X connect 13 0 15 0;
#X connect 14 0 13 0;
