#N canvas 498 179 287 157 10;
#X text 179 48 * ~M_PI/2;
#X obj 123 23 inlet;
#X obj 17 23 inlet~;
#X obj 17 119 outlet~;
#X obj 108 119 outlet~;
#X obj 32 72 cos;
#X obj 123 72 sin;
#X obj 108 97 *~;
#X obj 17 97 *~;
#X obj 123 47 * 1.5708;
#X connect 1 0 9 0;
#X connect 2 0 7 0;
#X connect 2 0 8 0;
#X connect 5 0 8 1;
#X connect 6 0 7 1;
#X connect 7 0 4 0;
#X connect 8 0 3 0;
#X connect 9 0 5 0;
#X connect 9 0 6 0;
