#N canvas 135 256 200 361 10;
#X obj 52 54 bng 15 250 50 0 empty empty empty 17 7 0 10 -262144 -1
-1;
#X obj 52 167 osc~;
#X obj 52 144 line~;
#X obj 52 331 dac~;
#X obj 67 212 line~;
#X msg 67 189 1 \, 0 150;
#X msg 91 97 0.75;
#X msg 52 121 150 \, 20 150;
#X obj 76 53 r #HV_IN;
#X obj 14 12 loadbang;
#X obj 14 33 metro 500;
#X obj 52 234 *~;
#X obj 52 306 e_pan;
#X obj 79 281 r pan @hv_param;
#X obj 52 75 t a a a;
#X obj 52 281 *~;
#X obj 67 258 r gain @hv_param;
#X connect 0 0 14 0;
#X connect 1 0 11 0;
#X connect 2 0 1 0;
#X connect 4 0 11 1;
#X connect 5 0 4 0;
#X connect 6 0 1 1;
#X connect 7 0 2 0;
#X connect 8 0 14 0;
#X connect 9 0 10 0;
#X connect 10 0 14 0;
#X connect 11 0 15 0;
#X connect 12 0 3 0;
#X connect 12 1 3 1;
#X connect 13 0 12 1;
#X connect 14 0 7 0;
#X connect 14 1 5 0;
#X connect 14 2 6 0;
#X connect 15 0 12 0;
#X connect 16 0 15 1;
