#N canvas 533 248 180 272 10;
#X obj 57 143 osc~;
#X obj 57 120 line~;
#X obj 57 237 dac~;
#X obj 72 188 line~;
#X msg 72 165 1 \, 0 150;
#X msg 96 73 0.75;
#X msg 57 97 150 \, 20 150;
#X obj 57 210 *~;
#X obj 57 51 t a a a;
#X obj 12 7 notein;
#X obj 12 29 select 0;
#X obj 68 29 bng 15 250 50 0 empty empty empty 17 7 0 10 -262144 -1
-1;
#X connect 0 0 7 0;
#X connect 1 0 0 0;
#X connect 3 0 7 1;
#X connect 4 0 3 0;
#X connect 5 0 0 1;
#X connect 6 0 1 0;
#X connect 7 0 2 0;
#X connect 7 0 2 1;
#X connect 8 0 6 0;
#X connect 8 1 4 0;
#X connect 8 2 5 0;
#X connect 9 0 10 0;
#X connect 10 1 8 0;
#X connect 11 0 8 0;
